<svg id="Lager_1" xmlns="http://www.w3.org/2000/svg" viewBox="0 0 279.1 279.1"><style>.st0{fill:#949494;}</style><path class="st0" d="M276.3 109.8l-93.7-70.7c-2.5-1.9-5.9-1.9-8.4 0l-15.4 11.6-15.4-11.6c-2.5-1.9-5.9-1.9-8.4 0l-15 11.3-15-11.3c-2.5-1.9-5.9-1.9-8.4 0L2.8 109.8C1 111.1 0 113.2 0 115.4v119c0 3.9 3.1 7 7 7h265.1c3.9 0 7-3.1 7-7v-119c0-2.2-1-4.3-2.8-5.6zM269 230.2h-29.1V115.4c0-2.2-1-4.3-2.8-5.6l-68.5-51.6 10.3-8.1 89.5 66.3.6 113.8zm-67.6-2.8v-112c0-2.2-1-4.3-2.8-5.6L129.9 58l9.1-7.3 88.9 67.1.3 112.5h-26.8v-2.9zm-113.5 2.9l-.2-56.5 26.5.1v56.2m11.8.1l.2-60.6c0-3.9-3.1-7-7-7h-37c-3.9 0-7 3.1-7 7v60.6l-22.8.1H10.8L10.6 118l90-67.6 88.5 67.6.1 112.2H126z"/></svg>