<svg id="Lager_1" xmlns="http://www.w3.org/2000/svg" viewBox="0 0 512 511.9"><style>.st0{fill:#333333;}</style><title>kontakta-oss_focus_&amp;quot;</title><ellipse class="st0" cx="169.7" cy="227.4" rx="40" ry="37.2"/><ellipse class="st0" cx="176" cy="166.9" rx="52.9" ry="46.8"/><ellipse class="st0" cx="339.6" cy="337.2" rx="53.7" ry="49"/><path class="st0" d="M151.3 272.4l35.8-44.6 139.1 109.9-35.8 44.5z"/><path class="st0" d="M436.9 74.9c-100-99.9-262-99.9-362 .1S-25 337 75 437c47.9 48.2 113.1 75.2 181 75 39.7 0 75.9-7.4 104.7-21.2 27.3-13.2 47.1-32 55.8-53 10.4-25.2 4.5-51.4-16.1-72l-.7-.7c.3-.4.7-.7 1-1 14.8-15.5 14.8-35.8-.2-50.8L364 276.7c-7.2-7.4-15.8-11.4-25-11.4s-17.9 3.9-25.3 11.3l-19 19c-1-.5-1.8-1-2.7-1.4-2.1-1-4.2-2.1-6.2-3.4-19.3-12.2-36.8-28.2-53.5-48.8-6.3-7.7-11.8-16.1-16.2-25 4.7-4.4 9.2-9 13.5-13.4 1.8-1.9 3.7-3.7 5.6-5.6 15.5-15.5 15.5-35.5 0-51l-18-18c-2.1-2.1-4.1-4.1-6.1-6.2-4-4.1-8.1-8.3-12.5-12.4-7.2-7.1-15.7-10.7-24.8-10.7s-17.7 3.7-25.1 10.7l-.2.2-22.6 22.7c-9 8.8-14.4 20.5-15.4 33.1-1.6 20 4.2 38.6 8.7 50.7 10.8 29.3 27.1 56.5 51.2 85.5 28.7 34.6 64.5 62.6 104.9 82.2 15.5 7.4 36.2 16 59.6 17.6 1.5.1 3 .1 4.4.1 16.3 0 30.1-5.9 40.9-17.6l.4-.4c.4-.4.7-.9 1.2-1.3l.6.6c13.5 13.5 17.2 28.9 10.6 44.5-12.1 28.8-59.2 58.2-137.1 58.2-127.2 0-230.7-103.4-230.7-230.7S128.7 25.3 255.9 25.3 486.6 128.7 486.6 256c0 20.8-2.8 41.5-8.3 61.5-1.9 6.7 2.1 13.7 8.9 15.6s13.7-2.1 15.6-8.9c24.6-88.9-.6-184.1-65.9-249.3zm-75.4 292.8c-6 6.4-12.7 9.3-22.1 9.3-.9 0-1.9 0-2.8-.1-19-1.3-36.9-8.7-50.2-15.2-37.1-18-70-43.8-96.4-75.5-22.2-26.8-37.1-51.5-47-78-5.9-16-8.1-28.2-7.3-39.8.5-6.6 3.3-12.7 8.1-17.3l22.6-22.5c1.8-1.7 4.5-3.7 7.5-3.7s5.5 1.9 7.1 3.6l.3.3c4 3.7 7.8 7.6 11.8 11.7 2.1 2.1 4.2 4.3 6.3 6.4l18 18c5.6 5.6 5.6 9.7 0 15.3l-5.7 5.7c-5.6 5.6-10.7 11-16.4 16-.2.1-.3.3-.5.5-7.9 7.9-5.2 16.1-4.3 18.9.1.3.2.5.3.8 4.9 11.7 11.6 22.6 21.9 35.7l.1.1c18.5 22.9 38 40.5 59.6 54.2 2.8 1.8 5.7 3.3 8.4 4.6 2.1 1 4.2 2.1 6.2 3.4l1.2.6c2.5 1.3 5.4 2 8.2 2 4.8-.1 9.4-2.1 12.6-5.7l22.6-22.6c1.8-1.8 4.4-3.9 7.4-3.9 2.7 0 5.3 2 6.9 3.7l.2.2 36.4 36.4c5.2 5.2 5.2 9.9-.2 15.5l-.1.1c-2.4 2.6-5.1 5.2-7.9 7.9-4.2 4.1-8.6 8.5-12.8 13.4z" id="Capa_1"/></svg>