<svg id="Layer_1" xmlns="http://www.w3.org/2000/svg" viewBox="0 0 512 512"><style>.st0{fill:#333333;}</style><path class="st0" d="M447.9 103.6c0-3.1-1.2-6.1-3.5-8.4L352.7 3.5c-2.2-2.2-5.2-3.5-8.5-3.5H89.3C75.4 0 64 11.3 64 25.2v461.5c0 13.9 11.3 25.2 25.2 25.2h333.4c13.9 0 25.2-11.3 25.2-25.2v-383c.2 0 .1 0 .1-.1zm-91.7-62.7L407 91.8h-49.6c-.7 0-1.3-.6-1.3-1.3l.1-49.6zM424 486.8c0 .7-.6 1.3-1.3 1.3H89.3c-.7 0-1.3-.6-1.3-1.3V25.2c0-.7.6-1.3 1.3-1.3h242.9v66.5c0 13.9 11.3 25.2 25.2 25.2H424v371.2z"/><path class="st0" d="M332.9 93.1V11.6H84.7v480.6h102.1v8.4H435V93.1H332.9zM256 405H149.9c-6.6 0-12-5.4-12-12s5.4-12 12-12H256c6.6 0 12 5.4 12 12s-5.4 12-12 12zm106.1-72.3H149.9c-6.6 0-12-5.4-12-12s5.4-12 12-12h212.2c6.6 0 12 5.4 12 12s-5.4 12-12 12zm0-72.3H149.9c-6.6 0-12-5.4-12-12s5.4-12 12-12h212.2c6.6 0 12 5.3 12 12 0 6.6-5.4 12-12 12zm0-72.4H149.9c-6.6 0-12-5.4-12-12s5.4-12 12-12h212.2c6.6 0 12 5.4 12 12s-5.4 12-12 12z"/></svg>