<svg id="Capa_1" xmlns="http://www.w3.org/2000/svg" viewBox="0 0 512 512"><style>.st0{fill:#333333;}</style><ellipse class="st0" cx="256.1" cy="445.1" rx="103.8" ry="54.7"/><ellipse class="st0" cx="209.6" cy="396.1" rx="11.7" ry="9.7"/><ellipse class="st0" cx="303.9" cy="396.1" rx="11.7" ry="9.7"/><circle class="st0" cx="245.3" cy="384.4" r="15"/><path class="st0" d="M0 3.6v118.6h38.6v19.1h316.6c11.1 1 10.8 10.8 10.8 10.8-1.6 10.3-10.8 10.8-10.8 10.8H38.6v345.5h434.7V122.2H512V3.6H0zM309 487l-1.2-.1c1.6-3.6 2.6-7.4 2.6-11.4 0-6-4.8-10.8-10.8-10.8s-10.8 4.8-10.8 10.8c0 6.1-8.1 11.4-17.3 11.4h-68.3c-18.2 0-33-14.8-33-33 0-14.6 7.2-23.4 18-36.7 5.3-6.5 11-13.6 16.6-22.2 2.3 3 5.1 6.7 8.4 11.4l10.4 17.6c2 3.4 5.6 5.3 9.3 5.3 1.9 0 3.8-.5 5.5-1.5 5.1-3 6.8-9.7 3.8-14.8l-7.6-12.8 13.5-25.2c3.9 12.3 10.4 25.2 21 32.9l-9.8 13.1c-3.6 4.8-2.6 11.5 2.1 15.1 1.9 1.5 4.2 2.2 6.5 2.2 3.3 0 6.5-1.5 8.6-4.3l17.7-23.5 11.6-13.9c7.7 15.2 16.4 22.4 23.2 28.1 8.7 7.2 13 10.8 13 29.3 0 18.2-14.8 33-33 33zm75.9-.1H352c7-9.2 11.4-20.6 11.4-33 0-28.6-10.6-37.4-20.8-45.9-8.2-6.8-16.6-13.8-23.5-35.5-1.2-3.8-4.3-6.6-8.2-7.3-3.8-.8-7.8.7-10.4 3.7L282.1 391c-13.1-8.8-17.8-38-18.5-48.8-.3-4.8-3.7-8.9-8.5-9.9-4.7-1-9.6 1.2-11.8 5.5l-22.8 42.7c-1.6-2-3-3.7-4.2-5.2-1.8-2.1-3.2-3.9-4.6-5.8-2.2-3.1-5.9-4.8-9.7-4.4-3.8.3-7.1 2.6-8.8 6-6.6 13.6-14.4 23.2-22 32.5-11.7 14.4-22.8 28-22.8 50.3 0 12.5 4.4 23.8 11.4 33h-32.9V331c0-71.1 57.8-128.9 128.9-128.9S384.9 259.9 384.9 331v155.9zm105.6-386.3H21.6V25.2h468.9v75.4z"/></svg>